<svg version="1.2" xmlns="http://www.w3.org/2000/svg" viewBox="0 0 90 90" width="90" height="90"><style>.a{fill:#fff;stroke:#ddd;stroke-width:2}.b{fill:#c0301c}</style><path class="a" d="m45 0c24.9 0 45 20.1 45 45 0 24.9-20.1 45-45 45-24.9 0-45-20.1-45-45 0-24.9 20.1-45 45-45z"/><path fill-rule="evenodd" class="b" d="m35.6 57.7c0.4-0.4 0.4-0.9 0-1.3l-11.3-11.4 11.3-11.4c0.4-0.4 0.4-0.9 0-1.3l-1.4-1.5c-0.4-0.4-1-0.4-1.4 0l-13.4 13.5c-0.4 0.4-0.4 1 0 1.4l13.4 13.5c0.4 0.4 1 0.4 1.4 0zm17-31c0.2-0.4-0.1-1-0.6-1.1l-1.8-0.5c-0.5-0.2-1 0.1-1.1 0.6l-10.8 37.5c-0.1 0.4 0.1 1 0.6 1.1l1.8 0.5c0.5 0.1 1-0.1 1.1-0.6zm19 18.8c0.4-0.3 0.4-0.9 0-1.3l-13.4-13.5c-0.4-0.4-1-0.4-1.4 0l-1.4 1.4c-0.4 0.4-0.4 1 0 1.4l11.3 11.4-11.3 11.4c-0.4 0.3-0.4 0.9 0 1.3l1.4 1.4c0.4 0.4 1 0.4 1.4 0z"/></svg>