<svg version="1.2" xmlns="http://www.w3.org/2000/svg" width="15" height="11"><path fill-rule="evenodd" d="M13.9 9.7c0 .2-.1.3-.2.3H1.3c-.1 0-.2-.1-.2-.3v-6q.2.3.5.6 1.9 1.3 3.6 2.6C5.8 7.4 6.6 8 7.5 8c.9 0 1.7-.6 2.3-1.1q1.7-1.3 3.6-2.6.3-.3.5-.6zm0-8.2c0 .7-.7 1.6-1.2 2L9.3 5.9C8.9 6.3 8.1 7 7.5 7c-.6 0-1.4-.7-1.8-1.1L2.3 3.5c-.8-.6-1.2-1.4-1.2-2.3 0-.1.1-.2.2-.2h12.4c.3 0 .2.3.2.5zm1.1-.3c0-.6-.6-1.2-1.3-1.2H1.3C.6 0 0 .6 0 1.2v8.5c0 .7.6 1.3 1.3 1.3h12.4c.7 0 1.3-.6 1.3-1.3z" style="fill:#555"/></svg>