<svg version="1.2" xmlns="http://www.w3.org/2000/svg" width="90" height="90"><path d="M45 0c24.9 0 45 20.1 45 45S69.9 90 45 90 0 69.9 0 45 20.1 0 45 0z" style="fill:#fff;stroke:#ddd;stroke-width:2"/><path fill-rule="evenodd" d="M35.6 57.7c.4-.4.4-.9 0-1.3L24.3 45l11.3-11.4c.4-.4.4-.9 0-1.3l-1.4-1.5c-.4-.4-1-.4-1.4 0L19.4 44.3c-.4.4-.4 1 0 1.4l13.4 13.5c.4.4 1 .4 1.4 0zm17-31c.2-.4-.1-1-.6-1.1l-1.8-.5a.8.8 0 0 0-1.1.6L38.3 63.2c-.1.4.1 1 .6 1.1l1.8.5c.5.1 1-.1 1.1-.6zm19 18.8c.4-.3.4-.9 0-1.3L58.2 30.7c-.4-.4-1-.4-1.4 0l-1.4 1.4c-.4.4-.4 1 0 1.4l11.3 11.4-11.3 11.4c-.4.3-.4.9 0 1.3l1.4 1.4c.4.4 1 .4 1.4 0z" style="fill:#c0301c"/></svg>