<svg version="1.2" xmlns="http://www.w3.org/2000/svg" width="90" height="90"><path d="M45 0c24.9 0 45 20.1 45 45S69.9 90 45 90 0 69.9 0 45 20.1 0 45 0z" style="fill:#c0301c;stroke:#ddd;stroke-width:2"/><path fill-rule="evenodd" d="M42.7 36.2C44.6 40 46.1 44 47.5 48H46c-2.5 0-5.1 0-7.7-.1zM24 65c1.6 0 3.2-.1 4.9-.3.3-.1.8-.3 1.2-.3 3 0 6 .6 9 .6q.1-.4.1-.7v-1.5c-1.5-.3-5.3-.3-5.3-2.3 0-1 2.6-7.9 3.3-9.4l11.6.1c.4 1.1 3.7 8.8 3.7 9.7 0 1-1.3 1.2-2 1.3l-3.4.8q-.1 1-.1 2c3.4-.1 6.8-.4 10.1-.4s6.6.4 9.9.4v-.7c0-.5-.1-.9-.1-1.4-1.3-.5-3.6-.7-4.5-1.3-.4-.3-.7-1.1-.9-1.5-1.3-2.7-2.2-5.5-3.4-8.2-1.9-4.6-3.7-9.2-5.6-13.8l-5.3-12.5q-.2-.3-.3-.6h-3.3l-7.3 18.9-6.1 16c-1.1 2.8-3.7 2.3-6.1 3.1z" style="fill:#fff"/></svg>